<svg width="45" height="40" viewBox="0 0 45 40" fill="none" xmlns="http://www.w3.org/2000/svg">
<path d="M41.875 16.7535H8.76583L18.8996 4.58183C19.3734 4.01172 19.6014 3.27673 19.5333 2.53854C19.4653 1.80035 19.1068 1.11943 18.5367 0.645579C17.9666 0.171726 17.2316 -0.0562471 16.4934 0.0118129C15.7552 0.079873 15.0743 0.438391 14.6004 1.0085L0.642083 17.7585C0.548174 17.8917 0.464196 18.0317 0.390833 18.1772C0.390833 18.3168 0.390834 18.4006 0.195417 18.5402C0.0688806 18.8603 0.0026273 19.201 0 19.5452C0.0026273 19.8893 0.0688806 20.2301 0.195417 20.5502C0.195417 20.6897 0.195416 20.7735 0.390833 20.9131C0.464196 21.0586 0.548174 21.1986 0.642083 21.3318L14.6004 38.0818C14.8629 38.397 15.1916 38.6504 15.5631 38.8241C15.9346 38.9978 16.3399 39.0875 16.75 39.0868C17.4023 39.0881 18.0344 38.8609 18.5367 38.4447C18.8193 38.2104 19.053 37.9226 19.2243 37.5978C19.3956 37.273 19.5011 36.9176 19.5348 36.5519C19.5685 36.1863 19.5297 35.8176 19.4207 35.4669C19.3117 35.1163 19.1346 34.7906 18.8996 34.5085L8.76583 22.3368H41.875C42.6154 22.3368 43.3255 22.0427 43.849 21.5192C44.3725 20.9956 44.6667 20.2856 44.6667 19.5452C44.6667 18.8048 44.3725 18.0947 43.849 17.5712C43.3255 17.0476 42.6154 16.7535 41.875 16.7535Z" fill="#EEFFFD"/>
</svg>
