<svg width="60" height="65" viewBox="0 0 60 65" fill="none" xmlns="http://www.w3.org/2000/svg">
<path d="M30.0004 2.23895e-08C32.6927 -0.000174446 35.2831 1.01931 37.2401 2.84932C39.1971 4.67932 40.3724 7.18112 40.5248 9.84148L40.541 10.4321H57.5683C58.1846 10.4323 58.7778 10.664 59.2282 11.0804C59.6785 11.4968 59.9523 12.0669 59.9943 12.6754C60.0363 13.284 59.8434 13.8856 59.4545 14.3587C59.0655 14.8319 58.5096 15.1413 57.8991 15.2244L57.5683 15.2469H54.9866L50.8352 57.0395C50.6272 59.1231 49.6777 61.0656 48.1562 62.5203C46.6347 63.9749 44.6403 64.847 42.5292 64.9807L41.9584 65H18.0424C15.926 64.9999 13.8786 64.2551 12.2661 62.8985C10.6536 61.5419 9.58104 59.662 9.24011 57.5948L9.16552 57.0363L5.01087 15.2469H2.43246C1.84466 15.2469 1.27674 15.0362 0.833749 14.6538C0.390753 14.2715 0.102644 13.7433 0.0227029 13.1669L0 12.8395C2.47881e-05 12.2578 0.212898 11.6957 0.599252 11.2573C0.985606 10.8188 1.5193 10.5337 2.10165 10.4546L2.43246 10.4321H19.4597C19.4597 7.66533 20.5702 5.01189 22.547 3.05549C24.5238 1.09909 27.2048 2.23895e-08 30.0004 2.23895e-08V2.23895e-08ZM50.099 15.2469H9.8985L14.0077 56.5644C14.0987 57.4864 14.5092 58.3487 15.1696 59.0052C15.8299 59.6616 16.6994 60.0718 17.6305 60.1659L18.0424 60.1852H41.9584C43.9043 60.1852 45.5552 58.821 45.9314 56.9689L45.9962 56.5644L50.0958 15.2469H50.099ZM35.6761 24.0741C36.2639 24.0741 36.8318 24.2848 37.2748 24.6672C37.7178 25.0495 38.0059 25.5777 38.0859 26.1541L38.1086 26.4815V48.9506C38.1084 49.5606 37.8743 50.1477 37.4535 50.5934C37.0328 51.0391 36.4568 51.3101 35.8419 51.3517C35.227 51.3933 34.6192 51.2023 34.1411 50.8174C33.663 50.4325 33.3504 49.8823 33.2664 49.278L33.2437 48.9506V26.4815C33.2437 25.843 33.4999 25.2307 33.9561 24.7792C34.4123 24.3277 35.031 24.0741 35.6761 24.0741ZM24.3246 24.0741C24.9124 24.0741 25.4803 24.2848 25.9233 24.6672C26.3663 25.0495 26.6544 25.5777 26.7344 26.1541L26.7571 26.4815V48.9506C26.7569 49.5606 26.5228 50.1477 26.102 50.5934C25.6813 51.0391 25.1053 51.3101 24.4904 51.3517C23.8756 51.3933 23.2677 51.2023 22.7896 50.8174C22.3115 50.4325 21.9989 49.8823 21.9149 49.278L21.8922 48.9506V26.4815C21.8922 25.843 22.1484 25.2307 22.6046 24.7792C23.0608 24.3277 23.6795 24.0741 24.3246 24.0741ZM30.0004 4.81481C28.576 4.81487 27.2036 5.34499 26.1558 6.29996C25.108 7.25493 24.4613 8.56491 24.3441 9.96988L24.3246 10.4321H35.6761C35.6761 8.9423 35.0781 7.51352 34.0137 6.46008C32.9493 5.40663 31.5057 4.81481 30.0004 4.81481Z" fill="#F631A7"/>
</svg>
