<?xml version="1.0" encoding="UTF-8" standalone="no"?>
<!DOCTYPE svg PUBLIC "-//W3C//DTD SVG 1.1//EN" "http://www.w3.org/Graphics/SVG/1.1/DTD/svg11.dtd">

<!-- Created with Vectornator (http://vectornator.io/) -->
<svg height="100%" stroke-miterlimit="10" style="fill-rule:nonzero;clip-rule:evenodd;stroke-linecap:round;stroke-linejoin:round;" version="1.1" viewBox="0 0 70 90" width="100%" xml:space="preserve" xmlns="http://www.w3.org/2000/svg" xmlns:vectornator="http://vectornator.io" xmlns:xlink="http://www.w3.org/1999/xlink">
<metadata>
<vectornator:setting key="IsTimeLapseWatermarkDisabled" value="false"/>
<vectornator:setting key="UndoHistoryDisabled" value="true"/>
<vectornator:setting key="VNDimensionsVisible" value="true"/>
<vectornator:setting key="VNSnapToGuides" value="true"/>
<vectornator:setting key="WDCMYKEnabledKey" value="false"/>
<vectornator:setting key="WDDisplayWhiteBackground" value="false"/>
<vectornator:setting key="WDDynamicGuides" value="false"/>
<vectornator:setting key="WDGuidesVisible" value="true"/>
<vectornator:setting key="WDIsolateActiveLayer" value="false"/>
<vectornator:setting key="WDOutlineMode" value="false"/>
<vectornator:setting key="WDRulersVisible" value="true"/>
<vectornator:setting key="WDSnapToEdges" value="false"/>
<vectornator:setting key="WDSnapToGrid" value="false"/>
<vectornator:setting key="WDSnapToPoints" value="false"/>
<vectornator:setting key="WDUnits" value="Points"/>
</metadata>
<defs/>
<g id="g960" vectornator:layerName="g960">
<path d="M6.35123 45C6.35123 23.4609 19.335 6 35.3512 6C51.3675 6 64.3512 23.4609 64.3512 45C64.3512 66.5391 51.3675 84 35.3512 84C19.335 84 6.35123 66.5391 6.35123 45Z" fill="#128dff" fill-opacity="0.2" fill-rule="evenodd" opacity="1" stroke="none"/>
</g>
<g id="g964" vectornator:layerName="g964">
<path d="M49.8359 63.5L49.8359 64.7865L52.2114 64.7865L50.9133 62.797L49.8359 63.5ZM43.4375 63.5L42.3414 64.1734L42.718 64.7865L43.4375 64.7865L43.4375 63.5ZM34.8125 49.4609L35.9086 48.7875L34.8155 47.0082L33.718 48.7849L34.8125 49.4609ZM26.1406 63.5L26.1406 64.7865L26.8581 64.7865L27.2351 64.1761L26.1406 63.5ZM20.1172 63.5L19.0342 62.8056L17.7642 64.7865L20.1172 64.7865L20.1172 63.5ZM31.5078 45.7344L32.5908 46.4287L33.0368 45.7331L32.5897 45.0382L31.5078 45.7344ZM20.8906 29.2344L20.8906 27.9479L18.5331 27.9479L19.8088 29.9305L20.8906 29.2344ZM27.1016 29.2344L28.198 28.5615L27.8215 27.9479L27.1016 27.9479L27.1016 29.2344ZM35.0703 42.2188L33.9739 42.8917L35.0735 44.6835L36.1685 42.8888L35.0703 42.2188ZM42.9922 29.2344L42.9922 27.9479L42.2701 27.9479L41.894 28.5644L42.9922 29.2344ZM49.0156 29.2344L50.0992 29.9278L51.3662 27.9479L49.0156 27.9479L49.0156 29.2344ZM38.3516 45.8984L37.268 45.205L36.8199 45.9052L37.2742 46.6014L38.3516 45.8984ZM49.8359 62.2135L43.4375 62.2135L43.4375 64.7865L49.8359 64.7865L49.8359 62.2135ZM44.5336 62.8266L35.9086 48.7875L33.7164 50.1344L42.3414 64.1734L44.5336 62.8266ZM33.718 48.7849L25.0461 62.8239L27.2351 64.1761L35.907 50.137L33.718 48.7849ZM26.1406 62.2135L20.1172 62.2135L20.1172 64.7865L26.1406 64.7865L26.1406 62.2135ZM21.2002 64.1944L32.5908 46.4287L30.4248 45.04L19.0342 62.8056L21.2002 64.1944ZM32.5897 45.0382L21.9725 28.5382L19.8088 29.9305L30.426 46.4305L32.5897 45.0382ZM20.8906 30.5208L27.1016 30.5208L27.1016 27.9479L20.8906 27.9479L20.8906 30.5208ZM26.0051 29.9073L33.9739 42.8917L36.1668 41.5458L28.198 28.5615L26.0051 29.9073ZM36.1685 42.8888L44.0904 29.9044L41.894 28.5644L33.9721 41.5487L36.1685 42.8888ZM42.9922 30.5208L49.0156 30.5208L49.0156 27.9479L42.9922 27.9479L42.9922 30.5208ZM47.9321 28.5409L37.268 45.205L39.4351 46.5919L50.0992 29.9278L47.9321 28.5409ZM37.2742 46.6014L48.7585 64.203L50.9133 62.797L39.429 45.1955L37.2742 46.6014Z" fill="#0094ff" fill-rule="evenodd" opacity="1" stroke="none"/>
</g>
<g id="g968" vectornator:layerName="g968">
<path d="M49.8359 63.5L49.8359 65.1823L52.9423 65.1823L51.2449 62.5807L49.8359 63.5ZM43.4375 63.5L42.0041 64.3806L42.4966 65.1823L43.4375 65.1823L43.4375 63.5ZM34.8125 49.4609L36.2459 48.5803L34.8164 46.2535L33.3812 48.5769L34.8125 49.4609ZM26.1406 63.5L26.1406 65.1823L27.0788 65.1823L27.5719 64.3841L26.1406 63.5ZM20.1172 63.5L18.701 62.592L17.0402 65.1823L20.1172 65.1823L20.1172 63.5ZM31.5078 45.7344L32.924 46.6424L33.5072 45.7327L32.9225 44.8241L31.5078 45.7344ZM20.8906 29.2344L20.8906 27.5521L17.8077 27.5521L19.4759 30.1447L20.8906 29.2344ZM27.1016 29.2344L28.5354 28.3544L28.043 27.5521L27.1016 27.5521L27.1016 29.2344ZM35.0703 42.2188L33.6365 43.0987L35.0745 45.4419L36.5064 43.0949L35.0703 42.2188ZM42.9922 29.2344L42.9922 27.5521L42.0479 27.5521L41.5561 28.3582L42.9922 29.2344ZM49.0156 29.2344L50.4326 30.1412L52.0895 27.5521L49.0156 27.5521L49.0156 29.2344ZM38.3516 45.8984L36.9346 44.9916L36.3486 45.9073L36.9426 46.8177L38.3516 45.8984ZM49.8359 61.8177L43.4375 61.8177L43.4375 65.1823L49.8359 65.1823L49.8359 61.8177ZM44.8709 62.6194L36.2459 48.5803L33.3791 50.3416L42.0041 64.3806L44.8709 62.6194ZM33.3812 48.5769L24.7094 62.6159L27.5719 64.3841L36.2438 50.345L33.3812 48.5769ZM26.1406 61.8177L20.1172 61.8177L20.1172 65.1823L26.1406 65.1823L26.1406 61.8177ZM21.5334 64.408L32.924 46.6424L30.0916 44.8264L18.701 62.592L21.5334 64.408ZM32.9225 44.8241L22.3053 28.3241L19.4759 30.1447L30.0931 46.6447L32.9225 44.8241ZM20.8906 30.9167L27.1016 30.9167L27.1016 27.5521L20.8906 27.5521L20.8906 30.9167ZM25.6678 30.1143L33.6365 43.0987L36.5041 41.3388L28.5354 28.3544L25.6678 30.1143ZM36.5064 43.0949L44.4283 30.1106L41.5561 28.3582L33.6342 41.3426L36.5064 43.0949ZM42.9922 30.9167L49.0156 30.9167L49.0156 27.5521L42.9922 27.5521L42.9922 30.9167ZM47.5986 28.3276L36.9346 44.9916L39.7685 46.8052L50.4326 30.1412L47.5986 28.3276ZM36.9426 46.8177L48.427 64.4193L51.2449 62.5807L39.7605 44.9792L36.9426 46.8177Z" fill="#0094ff" fill-rule="evenodd" opacity="1" stroke="none"/>
</g>
<g id="g972" vectornator:layerName="g972">
<path d="M49.8359 63.5L49.8359 64.7865L52.2114 64.7865L50.9133 62.797L49.8359 63.5ZM43.4375 63.5L42.3414 64.1734L42.718 64.7865L43.4375 64.7865L43.4375 63.5ZM34.8125 49.4609L35.9086 48.7875L34.8155 47.0082L33.718 48.7849L34.8125 49.4609ZM26.1406 63.5L26.1406 64.7865L26.8581 64.7865L27.2351 64.1761L26.1406 63.5ZM20.1172 63.5L19.0342 62.8056L17.7642 64.7865L20.1172 64.7865L20.1172 63.5ZM31.5078 45.7344L32.5908 46.4287L33.0368 45.7331L32.5897 45.0382L31.5078 45.7344ZM20.8906 29.2344L20.8906 27.9479L18.5331 27.9479L19.8088 29.9305L20.8906 29.2344ZM27.1016 29.2344L28.198 28.5615L27.8215 27.9479L27.1016 27.9479L27.1016 29.2344ZM35.0703 42.2188L33.9739 42.8917L35.0735 44.6835L36.1685 42.8888L35.0703 42.2188ZM42.9922 29.2344L42.9922 27.9479L42.2701 27.9479L41.894 28.5644L42.9922 29.2344ZM49.0156 29.2344L50.0992 29.9278L51.3662 27.9479L49.0156 27.9479L49.0156 29.2344ZM38.3516 45.8984L37.268 45.205L36.8199 45.9052L37.2742 46.6014L38.3516 45.8984ZM49.8359 62.2135L43.4375 62.2135L43.4375 64.7865L49.8359 64.7865L49.8359 62.2135ZM44.5336 62.8266L35.9086 48.7875L33.7164 50.1344L42.3414 64.1734L44.5336 62.8266ZM33.718 48.7849L25.0461 62.8239L27.2351 64.1761L35.907 50.137L33.718 48.7849ZM26.1406 62.2135L20.1172 62.2135L20.1172 64.7865L26.1406 64.7865L26.1406 62.2135ZM21.2002 64.1944L32.5908 46.4287L30.4248 45.04L19.0342 62.8056L21.2002 64.1944ZM32.5897 45.0382L21.9725 28.5382L19.8088 29.9305L30.426 46.4305L32.5897 45.0382ZM20.8906 30.5208L27.1016 30.5208L27.1016 27.9479L20.8906 27.9479L20.8906 30.5208ZM26.0051 29.9073L33.9739 42.8917L36.1668 41.5458L28.198 28.5615L26.0051 29.9073ZM36.1685 42.8888L44.0904 29.9044L41.894 28.5644L33.9721 41.5487L36.1685 42.8888ZM42.9922 30.5208L49.0156 30.5208L49.0156 27.9479L42.9922 27.9479L42.9922 30.5208ZM47.9321 28.5409L37.268 45.205L39.4351 46.5919L50.0992 29.9278L47.9321 28.5409ZM37.2742 46.6014L48.7585 64.203L50.9133 62.797L39.429 45.1955L37.2742 46.6014Z" fill="#00b3ff" fill-opacity="0.2" fill-rule="evenodd" opacity="1" stroke="none"/>
</g>
<g id="g976" vectornator:layerName="g976">
<path d="M49.8359 63.5L49.8359 64.2917L51.2977 64.2917L50.499 63.0674L49.8359 63.5ZM43.4375 63.5L42.763 63.9144L42.9947 64.2917L43.4375 64.2917L43.4375 63.5ZM34.8125 49.4609L35.487 49.0465L34.8143 47.9515L34.139 49.0449L34.8125 49.4609ZM26.1406 63.5L26.1406 64.2917L26.5821 64.2917L26.8142 63.916L26.1406 63.5ZM20.1172 63.5L19.4507 63.0727L18.6692 64.2917L20.1172 64.2917L20.1172 63.5ZM31.5078 45.7344L32.1743 46.1617L32.4487 45.7336L32.1736 45.306L31.5078 45.7344ZM20.8906 29.2344L20.8906 28.4427L19.4398 28.4427L20.2249 29.6628L20.8906 29.2344ZM27.1016 29.2344L27.7763 28.8203L27.5446 28.4427L27.1016 28.4427L27.1016 29.2344ZM35.0703 42.2188L34.3956 42.6328L35.0723 43.7355L35.7461 42.6311L35.0703 42.2188ZM42.9922 29.2344L42.9922 28.4427L42.5478 28.4427L42.3164 28.8221L42.9922 29.2344ZM49.0156 29.2344L49.6824 29.6611L50.4621 28.4427L49.0156 28.4427L49.0156 29.2344ZM38.3516 45.8984L37.6847 45.4717L37.409 45.9026L37.6885 46.331L38.3516 45.8984ZM49.8359 62.7083L43.4375 62.7083L43.4375 64.2917L49.8359 64.2917L49.8359 62.7083ZM44.112 63.0856L35.487 49.0465L34.138 49.8753L42.763 63.9144L44.112 63.0856ZM34.139 49.0449L25.4671 63.084L26.8142 63.916L35.486 49.877L34.139 49.0449ZM26.1406 62.7083L20.1172 62.7083L20.1172 64.2917L26.1406 64.2917L26.1406 62.7083ZM20.7836 63.9273L32.1743 46.1617L30.8414 45.3071L19.4507 63.0727L20.7836 63.9273ZM32.1736 45.306L21.5564 28.806L20.2249 29.6628L30.8421 46.1628L32.1736 45.306ZM20.8906 30.026L27.1016 30.026L27.1016 28.4427L20.8906 28.4427L20.8906 30.026ZM26.4268 29.6485L34.3956 42.6328L35.745 41.8047L27.7763 28.8203L26.4268 29.6485ZM35.7461 42.6311L43.668 29.6467L42.3164 28.8221L34.3945 41.8064L35.7461 42.6311ZM42.9922 30.026L49.0156 30.026L49.0156 28.4427L42.9922 28.4427L42.9922 30.026ZM48.3488 28.8077L37.6847 45.4717L39.0184 46.3252L49.6824 29.6611L48.3488 28.8077ZM37.6885 46.331L49.1729 63.9326L50.499 63.0674L39.0146 45.4658L37.6885 46.331Z" fill="#82d9ff" fill-rule="evenodd" opacity="1" stroke="none"/>
</g>
<g id="g980" vectornator:layerName="g980">
<path d="M49.8359 63.5L49.8359 63.8958L50.5668 63.8958L50.1674 63.2837L49.8359 63.5ZM43.4375 63.5L43.1002 63.7072L43.2161 63.8958L43.4375 63.8958L43.4375 63.5ZM34.8125 49.4609L35.1498 49.2537L34.8134 48.7062L34.4757 49.2529L34.8125 49.4609ZM26.1406 63.5L26.1406 63.8958L26.3614 63.8958L26.4774 63.708L26.1406 63.5ZM20.1172 63.5L19.784 63.2864L19.3932 63.8958L20.1172 63.8958L20.1172 63.5ZM31.5078 45.7344L31.841 45.948L31.9783 45.734L31.8407 45.5202L31.5078 45.7344ZM20.8906 29.2344L20.8906 28.8385L20.1652 28.8385L20.5578 29.4486L20.8906 29.2344ZM27.1016 29.2344L27.4389 29.0273L27.3231 28.8385L27.1016 28.8385L27.1016 29.2344ZM35.0703 42.2188L34.7329 42.4258L35.0713 42.9771L35.4082 42.4249L35.0703 42.2188ZM42.9922 29.2344L42.9922 28.8385L42.77 28.8385L42.6543 29.0282L42.9922 29.2344ZM49.0156 29.2344L49.349 29.4477L49.7389 28.8385L49.0156 28.8385L49.0156 29.2344ZM38.3516 45.8984L38.0182 45.6851L37.8803 45.9005L38.0201 46.1147L38.3516 45.8984ZM49.8359 63.1042L43.4375 63.1042L43.4375 63.8958L49.8359 63.8958L49.8359 63.1042ZM43.7748 63.2928L35.1498 49.2537L34.4752 49.6681L43.1002 63.7072L43.7748 63.2928ZM34.4757 49.2529L25.8039 63.292L26.4774 63.708L35.1493 49.669L34.4757 49.2529ZM26.1406 63.1042L20.1172 63.1042L20.1172 63.8958L26.1406 63.8958L26.1406 63.1042ZM20.4504 63.7136L31.841 45.948L31.1746 45.5207L19.784 63.2864L20.4504 63.7136ZM31.8407 45.5202L21.2235 29.0202L20.5578 29.4486L31.1749 45.9486L31.8407 45.5202ZM20.8906 29.6302L27.1016 29.6302L27.1016 28.8385L20.8906 28.8385L20.8906 29.6302ZM26.7642 29.4414L34.7329 42.4258L35.4077 42.0117L27.4389 29.0273L26.7642 29.4414ZM35.4082 42.4249L43.3301 29.4405L42.6543 29.0282L34.7324 42.0126L35.4082 42.4249ZM42.9922 29.6302L49.0156 29.6302L49.0156 28.8385L42.9922 28.8385L42.9922 29.6302ZM48.6822 29.021L38.0182 45.6851L38.685 46.1118L49.349 29.4477L48.6822 29.021ZM38.0201 46.1147L49.5044 63.7163L50.1674 63.2837L38.6831 45.6821L38.0201 46.1147Z" fill="#ffffff" fill-rule="evenodd" opacity="1" stroke="none"/>
</g>
<g id="g1482" vectornator:layerName="g1482">
<path d="M49.7922 63.5327L43.3938 63.5327L34.7688 49.4936L26.097 63.5327L20.0735 63.5327L31.4641 45.7671L20.847 29.267L27.0579 29.267L35.0266 42.2515L42.9485 29.267L48.9719 29.267L38.3079 45.9311L49.7922 63.5327Z" fill="#0597f2" fill-rule="evenodd" opacity="1" stroke="none"/>
</g>
</svg>
