<svg width="85" height="76" viewBox="0 0 85 76" fill="none" xmlns="http://www.w3.org/2000/svg">
<g clip-path="url(#clip0_34_102)">
<path d="M0 12.6667C0 9.30726 1.49256 6.08544 4.14932 3.70998C6.80609 1.33452 10.4094 0 14.1667 0H56.6667C60.4239 0 64.0272 1.33452 66.684 3.70998C69.3408 6.08544 70.8333 9.30726 70.8333 12.6667V50.6667C70.8333 54.0261 69.3408 57.2479 66.684 59.6234C64.0272 61.9988 60.4239 63.3333 56.6667 63.3333H14.1667C10.4094 63.3333 6.80609 61.9988 4.14932 59.6234C1.49256 57.2479 0 54.0261 0 50.6667V12.6667Z" stroke="#EEFFFD" stroke-width="2" stroke-linecap="round" stroke-linejoin="round"/>
<path d="M23.0208 28.5C27.9108 28.5 31.875 24.9555 31.875 20.5833C31.875 16.211 27.9108 12.6666 23.0208 12.6666C18.1308 12.6666 14.1666 16.211 14.1666 20.5833C14.1666 24.9555 18.1308 28.5 23.0208 28.5Z" stroke="#EEFFFD" stroke-width="2" stroke-linecap="round" stroke-linejoin="round"/>
<path d="M44.3629 33.6331L14.1666 63.3333H57.1377C60.77 63.3333 64.2535 62.0432 66.8219 59.7467C69.3904 57.4502 70.8333 54.3355 70.8333 51.0878V50.6666C70.8333 49.191 70.2135 48.6241 69.0979 47.5316L54.825 33.6141C54.1598 32.9653 53.3506 32.4476 52.4491 32.094C51.5476 31.7405 50.5736 31.5588 49.5892 31.5606C48.6048 31.5623 47.6317 31.7476 46.7318 32.1044C45.8319 32.4613 45.0251 32.9819 44.3629 33.6331V33.6331Z" stroke="#EEFFFD" stroke-width="2" stroke-linecap="round" stroke-linejoin="round"/>
</g>
<defs>
<clipPath id="clip0_34_102">
<rect width="85" height="76" fill="white"/>
</clipPath>
</defs>
</svg>
