<svg width="64" height="64" viewBox="0 0 64 64" fill="none" xmlns="http://www.w3.org/2000/svg">
<path d="M43.3 19.355C42.406 18.831 41.533 18.566 40.843 18.566C40.157 18.566 39.655 18.831 39.503 19.355C39.193 20.404 40.399 22.104 42.189 23.153C43.085 23.679 43.957 23.941 44.645 23.941C45.331 23.941 45.833 23.679 45.989 23.153C46.296 22.104 45.092 20.404 43.3 19.355ZM29.13 48.144C28.485 47.913 27.576 47.867 26.554 48.06C24.514 48.451 22.81 49.651 22.747 50.742C22.715 51.287 23.101 51.704 23.749 51.933C24.396 52.164 25.306 52.208 26.325 52.014C28.366 51.626 30.071 50.427 30.134 49.333C30.166 48.788 29.78 48.372 29.13 48.144ZM39.002 45.923C38.356 45.694 37.444 45.646 36.426 45.841C34.387 46.23 32.684 47.427 32.621 48.521C32.591 49.067 32.976 49.482 33.623 49.712C34.27 49.942 35.181 49.987 36.199 49.795C38.242 49.405 39.941 48.207 40.006 47.114C40.034 46.568 39.65 46.154 39.002 45.923ZM48.466 43.989C47.821 43.76 46.908 43.714 45.888 43.908C43.851 44.297 42.146 45.495 42.085 46.589C42.055 47.134 42.439 47.55 43.087 47.78C43.733 48.01 44.645 48.055 45.665 47.861C47.706 47.472 49.407 46.274 49.47 45.182C49.5 44.635 49.114 44.22 48.466 43.989ZM21.38 26.28C20.84 26.704 20.315 27.45 19.931 28.416C19.169 30.348 19.271 32.426 20.158 33.063C20.604 33.381 21.162 33.28 21.702 32.856C22.245 32.432 22.77 31.686 23.152 30.721C23.914 28.79 23.813 26.709 22.925 26.072C22.48 25.754 21.921 25.855 21.38 26.28ZM10.38 22.931C9.83701 23.355 9.31201 24.099 8.93001 25.065C8.16601 26.996 8.26701 29.077 9.15901 29.712C9.60101 30.031 10.159 29.928 10.702 29.504C11.242 29.08 11.767 28.335 12.149 27.369C12.913 25.439 12.811 23.358 11.922 22.72C11.478 22.403 10.92 22.505 10.38 22.931Z" fill="#31CC62"/>
<path d="M61.692 35.723L55.137 15.955C54.147 12.969 51.033 9.85199 48.045 8.86199L28.275 2.30699C27.041 1.89799 25.932 1.89999 25.078 2.30299C24.154 2.55399 23.098 2.95199 22.016 3.45599C20.537 4.14499 18.713 5.19199 17.939 6.10299C17.8519 6.17766 17.7676 6.25537 17.686 6.33599L4.427 19.598C2.366 21.658 1.449 25.578 2.34 28.523L8.102 47.607C8.207 47.956 8.337 48.285 8.489 48.586C8.953 49.998 10.855 51.977 11.439 52.561C12.025 53.146 14.007 55.053 15.419 55.516C15.719 55.665 16.048 55.795 16.395 55.9L35.478 61.662C36.218 61.887 37.031 62 37.896 62H37.897C40.376 62 42.929 61.048 44.401 59.576L57.663 46.313C57.747 46.229 57.823 46.145 57.897 46.06C58.809 45.283 59.856 43.459 60.543 41.985C61.05 40.898 61.448 39.839 61.699 38.914C62.103 38.055 62.101 36.955 61.692 35.723ZM11.509 49.767C10.782 48.883 10.397 48.228 10.32 47.956L10.246 47.772C10.1268 47.5403 10.0297 47.2979 9.956 47.048L4.192 27.963C3.513 25.718 4.247 22.514 5.795 20.967L19.057 7.70399C19.125 7.63499 19.197 7.57499 19.266 7.51499L19.394 7.38099C19.62 7.09499 20.233 6.62899 21.113 6.11099C21.952 6.37599 22.666 7.16799 23.053 8.45399L28.815 27.539C29.599 30.132 28.773 33.698 26.97 35.501L13.71 48.763C12.988 49.484 12.222 49.797 11.509 49.767ZM56.616 44.607L56.479 44.74C56.42 44.808 56.362 44.877 56.293 44.945L43.033 58.208C41.923 59.318 39.858 60.063 37.897 60.063H37.896C37.2672 60.0697 36.6409 59.9841 36.037 59.809L16.954 54.047C16.7042 53.9726 16.4618 53.8751 16.23 53.756L16.045 53.684C15.774 53.608 15.119 53.221 14.235 52.494C14.204 51.78 14.515 51.015 15.238 50.292L28.497 37.031C30.301 35.227 33.865 34.401 36.459 35.185L55.542 40.948C56.83 41.337 57.622 42.052 57.886 42.891C57.37 43.769 56.902 44.38 56.616 44.607ZM59.93 38.127L59.854 38.327C59.76 38.684 59.631 39.08 59.482 39.49C58.945 39.593 58.285 39.537 57.52 39.283L37.751 32.728C35.063 31.838 32.161 28.936 31.273 26.249L24.718 6.47999C24.465 5.71499 24.408 5.05599 24.511 4.51799C24.919 4.37099 25.312 4.24199 25.668 4.14799L25.871 4.06899C26.044 3.97899 26.267 3.93299 26.534 3.93299C26.866 3.93299 27.247 4.00399 27.668 4.14299L47.437 10.698C49.825 11.49 52.509 14.176 53.3 16.563L59.856 36.331C60.104 37.085 60.132 37.738 59.93 38.127Z" fill="#31CC62"/>
</svg>
